<svg xmlns="http://www.w3.org/2000/svg" viewBox="0 0 900 600"><rect width="900" height="600" rx="36" fill="#0b2530"/><g stroke="#35d4af" stroke-width="5" fill="none" opacity=".9"><path d="M80 120h180v80h120v120h170v-80h190"/><path d="M80 440h170v-90h150v-80h210v170h210"/><path d="M620 90v100h100v100"/></g><g fill="#153f4b" stroke="#83f2d8" stroke-width="4"><rect x="270" y="170" width="190" height="190" rx="18"/><rect x="510" y="250" width="120" height="120" rx="14"/><rect x="90" y="80" width="110" height="80" rx="12"/><rect x="700" y="120" width="110" height="80" rx="12"/></g><g fill="#12b886"><circle cx="120" cy="120" r="12"/><circle cx="230" cy="200" r="12"/><circle cx="390" cy="140" r="12"/><circle cx="600" cy="250" r="12"/><circle cx="770" cy="160" r="12"/><circle cx="750" cy="440" r="12"/></g><text x="450" y="320" text-anchor="middle" fill="#fff" font-family="Arial" font-size="30" font-weight="700">PCB</text><text x="70" y="535" fill="#9debd9" font-family="Arial" font-size="25" letter-spacing="3">SCHEMATIC • LAYOUT • PROTOTYPE • DFM</text></svg>